<svg width="20" height="20" viewBox="0 0 20 20" fill="none" xmlns="http://www.w3.org/2000/svg">
    <g clip-path="url(#ctlc278uya)">
        <path d="m1.67 18.335 1.127-4.14a8.333 8.333 0 1 1 15.537-4.193 8.333 8.333 0 0 1-12.525 7.204L1.67 18.335zM6.993 6.09a.8.8 0 0 0-.31.084c-.09.05-.172.115-.244.19-.1.094-.157.175-.218.255-.308.4-.473.892-.47 1.398.001.408.108.806.274 1.177.341.752.902 1.548 1.643 2.285.178.178.352.356.54.522a7.872 7.872 0 0 0 3.2 1.705l.474.073c.154.008.308-.004.463-.011.243-.013.48-.078.694-.193.139-.073.204-.11.32-.183 0 0 .036-.023.104-.075.112-.083.182-.143.275-.24a.956.956 0 0 0 .175-.252c.065-.136.13-.395.156-.61.02-.165.015-.255.012-.311-.003-.09-.077-.182-.158-.221l-.485-.218s-.725-.316-1.168-.517a.416.416 0 0 0-.147-.034.403.403 0 0 0-.315.106v-.002c-.004 0-.06.047-.663.777a.291.291 0 0 1-.306.109 1.179 1.179 0 0 1-.16-.055l-.21-.091-.004-.002a5.008 5.008 0 0 1-1.308-.833c-.105-.092-.203-.192-.303-.288a5.248 5.248 0 0 1-.85-1.057l-.049-.08a.769.769 0 0 1-.085-.17c-.031-.123.051-.221.051-.221s.203-.222.297-.342c.078-.1.151-.203.219-.31.098-.159.13-.321.078-.447a69.376 69.376 0 0 0-.724-1.701c-.049-.112-.195-.192-.327-.208-.045-.005-.09-.01-.135-.013a2.82 2.82 0 0 0-.336.004z" fill="#27AE60"/>
    </g>
    <defs>
        <clipPath id="ctlc278uya">
            <path fill="#fff" d="M0 0h20v20H0z"/>
        </clipPath>
    </defs>
</svg>
